<?xml version="1.0" encoding="UTF-8"?>
<svg xmlns="http://www.w3.org/2000/svg" version="1.1" width="300" height="300" viewBox="0 0 300 300"><rect x="0" y="0" width="300" height="300" fill="#ffffff"/><g transform="scale(10.345)"><g transform="translate(0,0)"><path fill-rule="evenodd" d="M8 0L8 1L9 1L9 2L8 2L8 5L9 5L9 6L8 6L8 7L9 7L9 8L8 8L8 9L9 9L9 10L10 10L10 9L9 9L9 8L10 8L10 7L11 7L11 8L12 8L12 9L11 9L11 12L13 12L13 13L14 13L14 14L13 14L13 15L12 15L12 17L10 17L10 16L6 16L6 17L7 17L7 18L4 18L4 17L2 17L2 18L4 18L4 19L3 19L3 20L1 20L1 21L3 21L3 20L6 20L6 21L8 21L8 22L9 22L9 24L10 24L10 25L8 25L8 29L12 29L12 28L13 28L13 29L14 29L14 28L16 28L16 29L17 29L17 26L16 26L16 25L19 25L19 26L18 26L18 27L20 27L20 28L19 28L19 29L22 29L22 28L23 28L23 29L24 29L24 28L26 28L26 29L28 29L28 27L29 27L29 25L28 25L28 22L27 22L27 26L28 26L28 27L27 27L27 28L26 28L26 27L24 27L24 25L25 25L25 23L26 23L26 22L25 22L25 21L26 21L26 20L27 20L27 21L29 21L29 20L27 20L27 19L26 19L26 18L27 18L27 17L28 17L28 18L29 18L29 17L28 17L28 16L26 16L26 15L29 15L29 14L26 14L26 13L25 13L25 12L24 12L24 10L25 10L25 9L26 9L26 11L27 11L27 13L28 13L28 9L29 9L29 8L28 8L28 9L27 9L27 8L24 8L24 9L23 9L23 11L22 11L22 10L20 10L20 9L22 9L22 8L20 8L20 7L21 7L21 6L20 6L20 5L21 5L21 1L20 1L20 0L19 0L19 1L18 1L18 3L17 3L17 4L16 4L16 2L15 2L15 3L14 3L14 2L13 2L13 3L12 3L12 0L11 0L11 3L12 3L12 5L13 5L13 6L12 6L12 7L11 7L11 6L10 6L10 3L9 3L9 2L10 2L10 0ZM16 0L16 1L17 1L17 0ZM19 1L19 2L20 2L20 1ZM19 3L19 4L17 4L17 5L14 5L14 4L13 4L13 5L14 5L14 6L13 6L13 7L12 7L12 8L13 8L13 9L14 9L14 10L13 10L13 11L15 11L15 13L16 13L16 14L14 14L14 15L13 15L13 16L14 16L14 18L13 18L13 17L12 17L12 18L11 18L11 19L10 19L10 20L9 20L9 19L8 19L8 21L9 21L9 22L10 22L10 23L11 23L11 22L10 22L10 20L11 20L11 21L12 21L12 24L11 24L11 27L10 27L10 26L9 26L9 28L11 28L11 27L12 27L12 24L13 24L13 23L14 23L14 25L13 25L13 26L14 26L14 27L13 27L13 28L14 28L14 27L16 27L16 26L15 26L15 24L19 24L19 25L20 25L20 27L21 27L21 26L22 26L22 27L23 27L23 25L20 25L20 23L17 23L17 22L20 22L20 21L19 21L19 20L22 20L22 19L21 19L21 18L20 18L20 16L21 16L21 17L22 17L22 18L23 18L23 20L24 20L24 19L25 19L25 17L26 17L26 16L25 16L25 13L23 13L23 12L22 12L22 11L20 11L20 10L19 10L19 8L18 8L18 9L17 9L17 10L19 10L19 11L20 11L20 12L19 12L19 13L20 13L20 12L21 12L21 14L24 14L24 16L25 16L25 17L23 17L23 15L22 15L22 16L21 16L21 15L20 15L20 16L18 16L18 15L19 15L19 14L17 14L17 12L18 12L18 11L16 11L16 8L17 8L17 7L18 7L18 5L19 5L19 4L20 4L20 3ZM9 6L9 7L10 7L10 6ZM14 6L14 7L15 7L15 6ZM16 6L16 7L17 7L17 6ZM19 6L19 7L20 7L20 6ZM0 8L0 16L1 16L1 14L2 14L2 13L3 13L3 15L2 15L2 16L3 16L3 15L4 15L4 14L6 14L6 15L7 15L7 14L8 14L8 15L9 15L9 14L8 14L8 13L10 13L10 15L11 15L11 13L10 13L10 12L6 12L6 13L4 13L4 12L3 12L3 10L5 10L5 11L7 11L7 10L5 10L5 9L4 9L4 8ZM6 8L6 9L7 9L7 8ZM2 9L2 10L1 10L1 13L2 13L2 10L3 10L3 9ZM6 13L6 14L7 14L7 13ZM16 14L16 15L14 15L14 16L17 16L17 14ZM8 17L8 18L9 18L9 17ZM15 17L15 18L14 18L14 19L15 19L15 20L14 20L14 21L15 21L15 20L16 20L16 19L17 19L17 21L18 21L18 20L19 20L19 19L18 19L18 18L19 18L19 17L18 17L18 18L16 18L16 17ZM0 18L0 19L1 19L1 18ZM12 18L12 20L13 20L13 18ZM6 19L6 20L7 20L7 19ZM21 21L21 24L24 24L24 21ZM22 22L22 23L23 23L23 22ZM0 0L0 7L7 7L7 0ZM1 1L1 6L6 6L6 1ZM2 2L2 5L5 5L5 2ZM22 0L22 7L29 7L29 0ZM23 1L23 6L28 6L28 1ZM24 2L24 5L27 5L27 2ZM0 22L0 29L7 29L7 22ZM1 23L1 28L6 28L6 23ZM2 24L2 27L5 27L5 24Z" fill="#000000"/></g></g></svg>
